<svg xmlns="http://www.w3.org/2000/svg" viewBox="0 0 100 100">
  <!-- Forest green background -->
  <circle cx="50" cy="50" r="50" fill="#1e3a2f"/>
  <!-- Running horse silhouette in antique gold -->
  <path fill="#c9a95c" d="
    M 72,22
    C 70,20 67,20 65,21
    L 63,19
    C 61,17 58,17 57,19
    L 55,21
    C 52,20 49,21 47,23
    L 44,22
    C 42,21 40,22 39,24
    L 37,27
    C 35,29 35,32 37,34
    L 38,36
    C 36,38 35,41 36,44
    L 34,47
    C 32,50 32,53 34,55
    L 36,57
    L 34,62
    C 33,65 34,68 36,69
    L 38,70
    L 37,75
    C 36,78 38,80 40,80
    L 43,79
    L 44,75
    L 45,73
    L 48,74
    L 49,78
    L 50,80
    C 51,82 54,82 55,80
    L 56,77
    L 55,72
    C 58,71 61,69 63,66
    L 66,68
    L 67,73
    L 68,76
    C 69,78 72,78 73,76
    L 73,72
    L 72,68
    L 74,65
    C 76,62 76,58 74,55
    L 72,53
    L 75,49
    C 77,46 76,42 74,40
    L 72,38
    L 74,34
    C 76,31 75,27 72,25
    Z
  "/>
  <!-- Mane detail -->
  <path fill="#a8843a" d="
    M 65,21 C 64,25 62,28 60,30
    L 58,32 C 56,28 55,24 57,21 Z
  "/>
  <!-- Eye -->
  <circle cx="68" cy="27" r="1.5" fill="#1e3a2f"/>
  <!-- Tail -->
  <path fill="#c9a95c" stroke="#c9a95c" stroke-width="2" stroke-linecap="round" fill="none"
    d="M 36,57 C 28,58 24,62 26,70 C 28,75 30,72 32,68"/>
  <!-- Legs extended (galloping) -->
  <line x1="45" y1="73" x2="40" y2="82" stroke="#c9a95c" stroke-width="3" stroke-linecap="round"/>
  <line x1="50" y1="78" x2="54" y2="85" stroke="#c9a95c" stroke-width="3" stroke-linecap="round"/>
  <line x1="68" y1="73" x2="72" y2="80" stroke="#c9a95c" stroke-width="3" stroke-linecap="round"/>
  <line x1="73" y1="72" x2="78" y2="78" stroke="#c9a95c" stroke-width="3" stroke-linecap="round"/>
</svg>
